<?xml version="1.0" encoding="UTF-8"?>
<svg width="512" height="512" viewBox="0 0 512 512" fill="none" xmlns="http://www.w3.org/2000/svg">
    <rect width="512" height="512" rx="128" fill="#007bff"/>
    <g filter="url(#filter0_d)">
        <!-- Corpo da calculadora -->
        <rect x="96" y="64" width="320" height="384" rx="32" fill="white"/>
        
        <!-- Tela -->
        <rect x="112" y="96" width="288" height="80" rx="16" fill="#e8f4f8"/>
        
        <!-- Botões -->
        <g>
            <!-- Linha 1 -->
            <rect x="112" y="200" width="64" height="64" rx="16" fill="#007bff" opacity="0.9"/>
            <rect x="192" y="200" width="64" height="64" rx="16" fill="#007bff" opacity="0.9"/>
            <rect x="272" y="200" width="64" height="64" rx="16" fill="#007bff" opacity="0.9"/>
            <rect x="352" y="200" width="48" height="64" rx="16" fill="#28a745" opacity="0.9"/>
            
            <!-- Linha 2 -->
            <rect x="112" y="280" width="64" height="64" rx="16" fill="#007bff" opacity="0.9"/>
            <rect x="192" y="280" width="64" height="64" rx="16" fill="#007bff" opacity="0.9"/>
            <rect x="272" y="280" width="64" height="64" rx="16" fill="#007bff" opacity="0.9"/>
            <rect x="352" y="280" width="48" height="144" rx="16" fill="#28a745" opacity="0.9"/>
            
            <!-- Linha 3 -->
            <rect x="112" y="360" width="64" height="64" rx="16" fill="#007bff" opacity="0.9"/>
            <rect x="192" y="360" width="64" height="64" rx="16" fill="#007bff" opacity="0.9"/>
            <rect x="272" y="360" width="64" height="64" rx="16" fill="#007bff" opacity="0.9"/>
        </g>
    </g>
    <defs>
        <filter id="filter0_d" x="88" y="60" width="336" height="400" filterUnits="userSpaceOnUse" color-interpolation-filters="sRGB">
            <feFlood flood-opacity="0" result="BackgroundImageFix"/>
            <feColorMatrix in="SourceAlpha" type="matrix" values="0 0 0 0 0 0 0 0 0 0 0 0 0 0 0 0 0 0 127 0"/>
            <feOffset dy="4"/>
            <feGaussianBlur stdDeviation="4"/>
            <feColorMatrix type="matrix" values="0 0 0 0 0 0 0 0 0 0 0 0 0 0 0 0 0 0 0.25 0"/>
            <feBlend mode="normal" in2="BackgroundImageFix" result="effect1_dropShadow"/>
            <feBlend mode="normal" in="SourceGraphic" in2="effect1_dropShadow" result="shape"/>
        </filter>
    </defs>
</svg>
